<svg width="11" height="11" viewBox="0 0 11 11" fill="none" xmlns="http://www.w3.org/2000/svg">
<path d="M5.03839 0.988403C2.26022 0.988403 0 3.20559 0 5.93087V7.97853C0 8.48464 0.451944 8.89635 1.00768 8.89635H1.51152C1.64514 8.89635 1.7733 8.84427 1.86778 8.75159C1.96227 8.6589 2.01536 8.53318 2.01536 8.4021V5.86019C2.01536 5.72911 1.96227 5.60339 1.86778 5.5107C1.7733 5.41802 1.64514 5.36594 1.51152 5.36594H1.05403C1.33417 3.45321 3.01195 1.9769 5.03839 1.9769C7.06483 1.9769 8.74262 3.45321 9.02275 5.36594H8.56526C8.43164 5.36594 8.30348 5.41802 8.20899 5.5107C8.11451 5.60339 8.06142 5.72911 8.06142 5.86019V8.89635C8.06142 9.4415 7.60948 9.88484 7.05375 9.88484H6.04607V9.39059H4.03071V10.8733H7.05375C8.16522 10.8733 9.0691 9.98665 9.0691 8.89635C9.62484 8.89635 10.0768 8.48464 10.0768 7.97853V5.93087C10.0768 3.20559 7.81656 0.988403 5.03839 0.988403Z" fill="#F17628"/>
</svg>
